<svg style="stroke: none;" xml:space="preserve" viewBox="0 0 21 12.4" height="12.4px" width="21px" y="0px" x="0px" xmlns:xlink="http://www.w3.org/1999/xlink" xmlns="http://www.w3.org/2000/svg"><g><path d="M20.9,6.5c0,0.1-0.1,0.2-0.2,0.3L15.5,12c-0.4,0.4-0.8,0.4-1.2,0c-0.4-0.4-0.4-0.8,0-1.2L18,7.1H0.9C0.6,7.1,0.4,7,0.2,6.8S0,6.4,0,6.2c0-0.3,0.1-0.5,0.2-0.6s0.4-0.2,0.6-0.2H18l-3.7-3.8c-0.4-0.4-0.4-0.8,0-1.2c0.4-0.4,0.8-0.4,1.2,0l5.3,5.3c0.1,0.1,0.2,0.2,0.2,0.3C21,6,21,6.1,21,6.2S21,6.4,20.9,6.5z"></path></g></svg>