<svg style="stroke: transparent;" viewBox="0 0 80 83" y="0px" x="0px" xmlns:xlink="http://www.w3.org/1999/xlink" xmlns="http://www.w3.org/2000/svg">style=”enable-background:new 0 0 80 83;” xml:space=”preserve”&gt;
<g><g><g><path d="M17.4,26H4.3V23H16V11.3h2.9v13.2C18.9,25.3,18.2,26,17.4,26z"></path></g><g><path d="M56.4,83h-55C0.6,83,0,82.3,0,81.5V21.6c0-0.4,0.2-0.8,0.4-1L13.5,7.4c0.3-0.3,0.6-0.4,1-0.4h41.9c0.8,0,1.5,0.7,1.5,1.5     v73.1C57.9,82.3,57.2,83,56.4,83z M2.9,80.1H55V9.9H15.2L2.9,22.2V80.1z"></path></g></g><g><g><path d="M71,80c0,0-0.1,0-0.2,0l-8.5-0.9l0.3-2.9l7.1,0.7L77,7.1L37.4,3L35,4.9l-1.8-2.3L36,0.3C36.3,0.1,36.7,0,37.1,0l41.6,4.4     c0.4,0,0.7,0.2,1,0.5C79.9,5.2,80,5.6,80,6l-7.5,72.7c0,0.4-0.2,0.7-0.5,1C71.7,79.9,71.3,80,71,80z"></path></g></g></g>
</svg>