<svg style="stroke: transparent;" viewBox="0 0 75 75" y="0px" x="0px" xmlns:xlink="http://www.w3.org/1999/xlink" xmlns="http://www.w3.org/2000/svg">style=”enable-background:new 0 0 75 75;” xml:space=”preserve”&gt;
<g><g><path d="M34.2,68.5C15.4,68.5,0,53.1,0,34.2C0,15.4,15.4,0,34.2,0c18.9,0,34.2,15.4,34.2,34.2C68.5,53.1,53.1,68.5,34.2,68.5z     M34.2,3C17,3,3,17,3,34.2c0,17.2,14,31.2,31.2,31.2s31.2-14,31.2-31.2C65.5,17,51.5,3,34.2,3z"></path></g><g><path d="M71.6,75c-1.3,0-2.8-0.6-4.1-1.9l-9.4-9.4l2.1-2.1l9.4,9.4c1,1,2.1,1.1,2.2,0.9c0.1-0.1,0.1-0.3,0-0.6    c-0.1-0.5-0.5-1.1-1-1.6l-9.4-9.4l2.1-2.1l9.4,9.4c0.9,0.9,1.5,2,1.8,3.1c0.3,1.3,0,2.5-0.8,3.4C73.4,74.7,72.6,75,71.6,75z"></path></g><g><path d="M62.2,34.2h-3c0-13.8-11.2-25-25-25v-3C49.6,6.3,62.2,18.8,62.2,34.2z"></path></g></g>
</svg>