<svg style="stroke: none;" xml:space="preserve" viewBox="0 0 21 12.4" height="12.4px" width="21px" y="0px" x="0px" xmlns:xlink="http://www.w3.org/1999/xlink" xmlns="http://www.w3.org/2000/svg"><g><path d="M0,6.2C0,6.1,0,6,0.1,5.9c0-0.1,0.1-0.2,0.2-0.3l5.3-5.3c0.4-0.4,0.8-0.4,1.2,0c0.4,0.4,0.4,0.8,0,1.2L3,5.3h17.1c0.3,0,0.5,0.1,0.6,0.2S21,5.9,21,6.2c0,0.3-0.1,0.5-0.2,0.6s-0.4,0.2-0.6,0.2H3l3.7,3.8c0.4,0.4,0.4,0.8,0,1.2c-0.4,0.4-0.8,0.4-1.2,0L0.3,6.8C0.2,6.7,0.1,6.6,0.1,6.5C0,6.4,0,6.3,0,6.2z"></path></g></svg>