<svg viewBox="0 0 11 11" height="14" width="14" y="0px" x="0px" xmlns:xlink="http://www.w3.org/1999/xlink" xmlns="http://www.w3.org/2000/svg"><path d="M11 1.41v8.18A1.43 1.43 0 019.59 11H1.41a1.32 1.32 0 01-1-.42 1.32 1.32 0 01-.42-1V1.41a1.32 1.32 0 01.42-1 1.32 1.32 0 011-.42h8.18a1.32 1.32 0 011 .42 1.32 1.32 0 01.41 1zM9.75 9.3V4.65h-1a3.34 3.34 0 01.14.94 3.16 3.16 0 01-.39 1.67A3.25 3.25 0 017.23 8.5a3.42 3.42 0 01-1.73.41 3.35 3.35 0 01-2.42-1 3.15 3.15 0 01-1-2.35 3.34 3.34 0 01.14-.94h-1V9.3a.46.46 0 00.13.31.43.43 0 00.31.12h7.66a.41.41 0 00.43-.43zM7.07 6.99a2 2 0 00.65-1.49 2.06 2.06 0 00-.65-1.52 2.18 2.18 0 00-1.57-.64 2.18 2.18 0 00-1.56.62A2.06 2.06 0 003.3 5.5a2 2 0 00.65 1.51 2.15 2.15 0 001.55.61 2.15 2.15 0 001.57-.63zM9.75 2.9V1.72a.46.46 0 00-.14-.35.47.47 0 00-.35-.15H8.01a.47.47 0 00-.35.15.5.5 0 00-.16.35V2.9a.48.48 0 00.14.35.46.46 0 00.35.14h1.27a.46.46 0 00.35-.14.45.45 0 00.14-.35z" style="stroke:transparent; fill:currentColor;"></path></svg>