<svg viewBox="0 0 14 11" height="14" width="14" y="0px" x="0px" xmlns:xlink="http://www.w3.org/1999/xlink" xmlns="http://www.w3.org/2000/svg"><path d="M12.4 1.8a4.94 4.94 0 001.6-.5 5 5 0 01-1.4 1.5v.3a9.18 9.18 0 01-.5 2.8 15.32 15.32 0 01-1.6 2.5 6.52 6.52 0 01-2.6 1.9 8.42 8.42 0 01-3.5.7A8.56 8.56 0 010 9.8h.7a5.5 5.5 0 003.5-1.2 3 3 0 01-1.6-.5 3.81 3.81 0 01-1.1-1.4 4.33 4.33 0 01.5.1 1.7 1.7 0 00.7-.1 2.75 2.75 0 01-1.6-1 3.45 3.45 0 01-.5-1.8 2.66 2.66 0 001.2.3A2.56 2.56 0 01.6 1.9 2.3 2.3 0 011 .5a8.6 8.6 0 002.6 2.1 7.64 7.64 0 003.3.8 1.27 1.27 0 01-.1-.6 3 3 0 01.8-2A2.86 2.86 0 019.7 0a2.88 2.88 0 012.1.9 5.55 5.55 0 001.9-.7 3.44 3.44 0 01-1.3 1.6z"></path></svg>